<?xml version="1.0" encoding="utf-8"?>
<!-- Generator: Adobe Illustrator 23.0.2, SVG Export Plug-In . SVG Version: 6.00 Build 0)  -->
<svg version="1.1" id="carousel" xmlns="http://www.w3.org/2000/svg" xmlns:xlink="http://www.w3.org/1999/xlink" x="0px" y="0px" viewBox="0 0 58 58" style="enable-background:new 0 0 58 58;" xml:space="preserve">
<g> <path d="M57,0.6H1c-0.6,0-1,0.4-1,1V45c0,0.5,0.4,1,1,1h56c0.6,0,1-0.4,1-1V1.6C58,1.1,57.6,0.6,57,0.6z M56,44H2V2.6h54V44z"/> <path d="M16,22.4c3.1,0,5.6-2.5,5.6-5.5c0-3-2.5-5.5-5.6-5.5s-5.6,2.5-5.6,5.5S12.9,22.4,16,22.4z M16,13.4c2,0,3.6,1.6,3.6,3.5 S18,20.5,16,20.5s-3.6-1.6-3.6-3.5S14,13.4,16,13.4z"/> <path d="M7,40c0.2,0,0.5-0.1,0.7-0.2L24,25.6l10.3,10.2c0.4,0.4,1,0.4,1.4,0c0.4-0.4,0.4-1,0-1.4l-4.8-4.7l9.2-9.9l11.3,10.2 c0.4,0.4,1,0.3,1.4-0.1c0.4-0.4,0.3-1-0.1-1.4l-12-10.8c-0.2-0.2-0.5-0.3-0.7-0.3c-0.3,0-0.5,0.1-0.7,0.3l-9.8,10.6l-4.7-4.7 c-0.4-0.4-1-0.4-1.4,0l-17,14.8c-0.4,0.4-0.5,1-0.1,1.4C6.4,39.9,6.7,40,7,40z"/> <path d="M18,55.5c2,0,3.6-1.6,3.6-3.5c0-1.9-1.6-3.5-3.6-3.5s-3.6,1.6-3.6,3.5C14.4,54,16,55.5,18,55.5z M28.7,55.5 c2,0,3.6-1.6,3.6-3.5c0-1.9-1.6-3.5-3.6-3.5s-3.6,1.6-3.6,3.5C25.1,54,26.7,55.5,28.7,55.5z M28.7,50.5c0.9,0,1.6,0.7,1.6,1.5 c0,0.9-0.7,1.5-1.6,1.5c-0.9,0-1.6-0.7-1.6-1.5S27.8,50.5,28.7,50.5z M39.1,55.5c2,0,3.6-1.6,3.6-3.5c0-1.9-1.6-3.5-3.6-3.5 s-3.6,1.6-3.6,3.5C35.6,54,37.2,55.5,39.1,55.5z M39.1,50.5c0.9,0,1.6,0.7,1.6,1.5c0,0.9-0.7,1.5-1.6,1.5s-1.6-0.7-1.6-1.5 S38.3,50.5,39.1,50.5z"/> </g>
</svg>
