<svg height="512pt" viewBox="0 -61 512 512" width="512pt" xmlns="http://www.w3.org/2000/svg" id="dialog"><g fill-rule="evenodd"><path d="m502 188.511719c-5.523438 0-10 4.476562-10 10v171.609375h-472v-20.003906c0-5.519532-4.476562-10-10-10s-10 4.480468-10 10v30.003906c0 5.523437 4.476562 10 10 10h492c5.523438 0 10-4.476563 10-10v-181.609375c0-5.523438-4.476562-10-10-10zm0 0"/><path d="m502 0h-492c-5.523438 0-10 4.476562-10 10v260.117188c0 5.523437 4.476562 10 10 10s10-4.476563 10-10v-171.605469h472v20c0 5.523437 4.476562 10 10 10s10-4.476563 10-10v-108.511719c0-5.523438-4.476562-10-10-10zm-482 78.511719v-58.511719h472v58.511719zm0 0"/><path d="m58.601562 341.519531h346.738282c5.519531 0 10-4.476562 10-10 0-5.523437-4.480469-10-10-10h-346.738282c-5.523437 0-10 4.476563-10 10 0 5.523438 4.476563 10 10 10zm0 0"/><path d="m247.027344 147.113281h208.613281c5.519531 0 10-4.476562 10-10 0-5.523437-4.480469-10-10-10h-208.613281c-5.523438 0-10 4.476563-10 10 0 5.523438 4.476562 10 10 10zm0 0"/><path d="m247.027344 211.914062h208.613281c5.519531 0 10-4.476562 10-10 0-5.523437-4.480469-10-10-10h-208.613281c-5.523438 0-10 4.476563-10 10 0 5.523438 4.476562 10 10 10zm0 0"/><path d="m385.347656 39.253906h-34.011718c-5.523438 0-10 4.476563-10 10 0 5.523438 4.476562 10 10 10h34.011718c5.519532 0 10-4.476562 10-10 0-5.523437-4.480468-10-10-10zm0 0"/><path d="m247.027344 276.71875h208.613281c5.519531 0 10-4.480469 10-10 0-5.523438-4.480469-10-10-10h-208.613281c-5.523438 0-10 4.476562-10 10 0 5.519531 4.476562 10 10 10zm0 0"/><path d="m455.640625 39.253906h-34.011719c-5.523437 0-10 4.476563-10 10 0 5.523438 4.476563 10 10 10h34.011719c5.523437 0 10-4.476562 10-10 0-5.523437-4.476563-10-10-10zm0 0"/><path d="m58.601562 276.71875h129.605469c5.519531 0 10-4.480469 10-10v-129.605469c0-5.523437-4.480469-10-10-10h-129.605469c-5.523437 0-10 4.476563-10 10v129.605469c0 5.519531 4.476563 10 10 10zm10-129.605469h109.605469v109.605469h-109.605469zm0 0"/><path d="m10 320.121094c5.507812 0 10-4.492188 10-10 0-5.507813-4.492188-10-10-10s-10 4.492187-10 10c0 5.507812 4.492188 10 10 10zm0 0"/><path d="m502 148.511719c-5.507812 0-10 4.492187-10 10 0 5.507812 4.492188 10 10 10s10-4.492188 10-10c0-5.507813-4.492188-10-10-10zm0 0"/></g></svg>
