<svg height="682.66669pt" id="dualslider" viewBox="-21 -21 682.66669 682.66669" width="682.66669pt" xmlns="http://www.w3.org/2000/svg"><path d="m577.5 0h-515c-34.460938 0-62.5 28.039062-62.5 62.5v515c0 34.460938 28.039062 62.5 62.5 62.5h515c34.460938 0 62.5-28.039062 62.5-62.5v-515c0-34.460938-28.039062-62.5-62.5-62.5zm37.5 577.5c0 20.671875-16.828125 37.5-37.5 37.5h-515c-20.671875 0-37.5-16.828125-37.5-37.5v-515c0-20.671875 16.828125-37.5 37.5-37.5h515c20.671875 0 37.5 16.828125 37.5 37.5zm0 0"/><path d="m552.5 120h-38.636719c-5.898437-31.960938-33.976562-56.25-67.613281-56.25s-61.714844 24.289062-67.613281 56.25h-291.136719c-6.898438 0-12.5 5.601562-12.5 12.5s5.601562 12.5 12.5 12.5h291.136719c5.898437 31.960938 33.976562 56.25 67.613281 56.25s61.714844-24.289062 67.613281-56.25h38.636719c6.898438 0 12.5-5.601562 12.5-12.5s-5.601562-12.5-12.5-12.5zm-106.25 56.25c-24.125 0-43.75-19.625-43.75-43.75s19.625-43.75 43.75-43.75 43.75 19.625 43.75 43.75-19.625 43.75-43.75 43.75zm0 0"/><path d="m502.5 307.5h-241.136719c-5.898437-31.960938-33.976562-56.25-67.613281-56.25s-61.714844 24.289062-67.613281 56.25h-38.636719c-6.898438 0-12.5 5.601562-12.5 12.5s5.601562 12.5 12.5 12.5h38.636719c5.898437 31.960938 33.976562 56.25 67.613281 56.25s61.714844-24.289062 67.613281-56.25h241.136719c6.898438 0 12.5-5.601562 12.5-12.5s-5.601562-12.5-12.5-12.5zm-308.75 56.25c-24.125 0-43.75-19.625-43.75-43.75s19.625-43.75 43.75-43.75 43.75 19.625 43.75 43.75-19.625 43.75-43.75 43.75zm0 0"/><path d="m552.5 486.25h-38.636719c-5.898437-31.960938-33.976562-56.25-67.613281-56.25s-61.714844 24.289062-67.613281 56.25h-291.136719c-6.898438 0-12.5 5.601562-12.5 12.5s5.601562 12.5 12.5 12.5h291.136719c5.898437 31.960938 33.976562 56.25 67.613281 56.25s61.714844-24.289062 67.613281-56.25h38.636719c6.898438 0 12.5-5.601562 12.5-12.5s-5.601562-12.5-12.5-12.5zm-106.25 56.25c-24.125 0-43.75-19.625-43.75-43.75s19.625-43.75 43.75-43.75 43.75 19.625 43.75 43.75-19.625 43.75-43.75 43.75zm0 0"/><path d="m552.523438 332.5c-6.902344 0-12.503907-5.59375-12.503907-12.5s5.589844-12.5 12.496094-12.5h.007813c6.90625 0 12.5 5.59375 12.5 12.5s-5.59375 12.5-12.5 12.5zm0 0"/>
</svg>
