<?xml version="1.0" encoding="utf-8"?>
<!-- Generator: Adobe Illustrator 23.0.2, SVG Export Plug-In . SVG Version: 6.00 Build 0)  -->
<svg version="1.1" id="filterTable" xmlns="http://www.w3.org/2000/svg" xmlns:xlink="http://www.w3.org/1999/xlink" x="0px" y="0px" viewBox="0 0 475.1 475.1" style="enable-background:new 0 0 475.1 475.1;" xml:space="preserve">
<g> <path d="M466.9,74.7c-8.4-9.1-19.3-9.7-21.3-9.8c-140.5-0.6-280.9-1.2-421.4-1.9c-3.1,0.8-9.5,3-15.4,8.8C3.4,77.2,1,82.9,0,85.9 c0,105,0,209.9,0,314.9c0,3.3,0.4,11.8,6,20.2c4.8,7.3,10.9,10.9,13.8,12.4c141.7-0.2,283.4-0.3,425-0.5c1.7,0.2,11.9,1.2,20.6-6.3 c9.3-8,9.6-19.3,9.6-20.9c0-103.3,0-206.6,0-310C475.1,93.3,474.7,83.2,466.9,74.7z M156.8,398.2c0,3.2-1,5.8-3.1,7.8 c-2,2-4.7,3.1-7.8,3.1H36.8c-3.2,0-5.8-1-7.8-3.1c-2-2-3.1-4.7-3.1-7.8v-65.5c0-3.2,1-5.8,3.1-7.8c2-2.1,4.7-3.1,7.8-3.1h109.1 c3.2,0,5.8,1,7.8,3.1c2,2,3.1,4.6,3.1,7.8L156.8,398.2L156.8,398.2z M157.2,288.7c0,3.2-1,5.8-3.1,7.9c-2.1,2.1-4.7,3.1-7.9,3.1 H36.5c-3.2,0-5.8-1-7.9-3.1c-2.1-2.1-3.1-4.7-3.1-7.9v-65.9c0-3.2,1-5.8,3.1-7.9c2.1-2.1,4.7-3.1,7.9-3.1h109.8 c3.2,0,5.8,1,7.9,3.1c2.1,2.1,3.1,4.7,3.1,7.9L157.2,288.7L157.2,288.7z M157.3,179.2c0,3.2-1,5.8-3.1,7.9 c-2.1,2.1-4.7,3.1-7.9,3.1H36.4c-3.2,0-5.8-1-7.9-3.1c-2.1-2.1-3.1-4.7-3.1-7.9v-66c0-3.2,1-5.8,3.1-7.9c2.1-2.1,4.7-3.1,7.9-3.1 h109.9c3.2,0,5.8,1,7.9,3.1c2.1,2.1,3.1,4.7,3.1,7.9L157.3,179.2L157.3,179.2z M301.7,397.5c0,3.1-1,5.7-3,7.7c-2,2-4.6,3-7.7,3 H184c-3.1,0-5.7-1-7.7-3c-2-2-3-4.6-3-7.7v-64.2c0-3.1,1-5.7,3-7.7c2-2,4.6-3,7.7-3h107c3.1,0,5.7,1,7.7,3c2,2,3,4.6,3,7.7 L301.7,397.5L301.7,397.5L301.7,397.5z M301.7,287.9c0,3.1-1,5.7-3,7.7c-2,2-4.6,3-7.7,3H184c-3.1,0-5.7-1-7.7-3c-2-2-3-4.6-3-7.7 v-64.2c0-3.1,1-5.7,3-7.7c2-2,4.6-3,7.7-3h107c3.1,0,5.7,1,7.7,3c2,2,3,4.6,3,7.7L301.7,287.9L301.7,287.9z M303.8,179.3 c0,3.2-1,5.9-3.1,7.9c-2.1,2.1-4.7,3.1-7.9,3.1H182.3c-3.2,0-5.9-1-7.9-3.1c-2.1-2.1-3.1-4.7-3.1-7.9V113c0-3.2,1-5.9,3.1-7.9 c2.1-2.1,4.7-3.1,7.9-3.1h110.5c3.2,0,5.9,1,7.9,3.1c2.1,2.1,3.1,4.7,3.1,7.9L303.8,179.3L303.8,179.3z M449.2,398.2 c0,3.2-1,5.8-3.1,7.8c-2.1,2-4.7,3.1-7.8,3.1H329.2c-3.2,0-5.8-1-7.8-3.1c-2-2-3.1-4.7-3.1-7.8v-65.5c0-3.2,1-5.8,3.1-7.8 c2-2.1,4.7-3.1,7.8-3.1h109.1c3.2,0,5.8,1,7.8,3.1c2,2,3.1,4.6,3.1,7.8V398.2z M449.6,288.7c0,3.2-1,5.8-3.1,7.9 c-2.1,2.1-4.7,3.1-7.9,3.1H328.8c-3.2,0-5.8-1-7.9-3.1c-2.1-2.1-3.1-4.7-3.1-7.9v-65.9c0-3.2,1-5.8,3.1-7.9 c2.1-2.1,4.7-3.1,7.9-3.1h109.8c3.2,0,5.8,1,7.9,3.1c2.1,2.1,3.1,4.7,3.1,7.9V288.7z M449.7,179.2c0,3.2-1,5.8-3.1,7.9 c-2.1,2.1-4.7,3.1-7.9,3.1H328.8c-3.2,0-5.8-1-7.9-3.1c-2.1-2.1-3.1-4.7-3.1-7.9v-66c0-3.2,1-5.8,3.1-7.9c2.1-2.1,4.7-3.1,7.9-3.1 h109.9c3.2,0,5.8,1,7.9,3.1c2.1,2.1,3.1,4.7,3.1,7.9V179.2z M-31.9,74.1"/> </g>
</svg>
