<?xml version="1.0" encoding="utf-8"?>
<!-- Generator: Adobe Illustrator 23.0.2, SVG Export Plug-In . SVG Version: 6.00 Build 0)  -->
<svg version="1.1" id="Capa_1" xmlns="http://www.w3.org/2000/svg" xmlns:xlink="http://www.w3.org/1999/xlink" x="0px" y="0px"
	 viewBox="0 0 58 58" style="enable-background:new 0 0 58 58;" xml:space="preserve">
<g>
	<path d="M9.2,38.7c5.1,0,9.2-4.1,9.2-8.9s-4.1-8.9-9.2-8.9S0,24.9,0,29.8C0,34.9,4.1,38.7,9.2,38.7z M30.3,36.7
		c4,0,7.1-3.2,7.1-6.9s-3.2-6.9-7.1-6.9s-7.1,3.2-7.1,6.9C23.2,33.7,26.4,36.7,30.3,36.7z M30.3,26.8c1.8,0,3.2,1.4,3.2,3
		c0,1.8-1.4,3-3.2,3s-3.2-1.4-3.2-3S28.6,26.8,30.3,26.8z M50.9,36.7c4,0,7.1-3.2,7.1-6.9s-3.2-6.9-7.1-6.9s-7.1,3.2-7.1,6.9
		C44,33.7,47.1,36.7,50.9,36.7z M50.9,26.8c1.8,0,3.2,1.4,3.2,3c0,1.8-1.4,3-3.2,3c-1.8,0-3.2-1.4-3.2-3S49.3,26.8,50.9,26.8z"/>
</g>
</svg>
