<?xml version="1.0" encoding="utf-8"?>
<!-- Generator: Adobe Illustrator 23.0.2, SVG Export Plug-In . SVG Version: 6.00 Build 0)  -->
<svg version="1.1" id="reactiveForms" xmlns="http://www.w3.org/2000/svg" xmlns:xlink="http://www.w3.org/1999/xlink" x="0px" y="0px" viewBox="0 0 434.2 434.2" style="enable-background:new 0 0 434.2 434.2;" xml:space="preserve">
<g> <path d="M349.3,229.9c0.2-67.2,0.5-134.4,0.7-201.6C246.4,28.5,142.7,28.8,39.1,29c0,126.3,0,252.7,0,379c47.7,0,95.4,0,143.1,0 c7.6,0.3,13.4,6.7,13.1,13.8c-0.3,6.3-5.5,11.7-12.3,12.4H31.4c-9.6,0-17.5-7.9-17.5-17.5V17.5C14,7.9,21.8,0,31.4,0h326.4 c9.6,0,17.5,7.9,17.5,17.5v212.7c-0.2,7-6,12.7-12.9,12.7C355.3,243,349.3,237.1,349.3,229.9z M418.5,265.6 c-1.9-4.9-7.1-9.6-13.4-8.9c-5.1,0.5-9.5,4.4-11,9.6c-33.5,36.9-67,73.8-100.4,110.8c-17.7-17.9-35.3-35.8-53-53.7 c-3.5-4.9-9.6-7.1-15.1-5.5c-5.2,1.5-8.8,5.9-9.7,11c-0.9,5.3,1.4,10.6,5.8,13.7l61.2,58.9c3.2,3.2,7.6,5,12.2,5c0.3,0,0.3,0,0.6,0 c4.7-0.3,9.3-2.3,12.2-5.8l107.8-120.1C419.4,276.4,420.4,270.6,418.5,265.6z M276.2,76.7H118.9c-9.6,0-17.5,5.7-17.5,12.7 s7.9,12.7,17.5,12.7h157.3c9.6,0,17.5-5.7,17.5-12.7S285.8,76.7,276.2,76.7z M293.7,215.6c0-7.1-7.9-12.9-17.5-12.9H118.9 c-9.6,0-17.5,5.8-17.5,12.9s7.9,12.9,17.5,12.9h157.3C285.8,228.5,293.7,222.7,293.7,215.6z M276.2,140.7H118.9 c-9.6,0-17.5,5.7-17.5,12.7s7.9,12.7,17.5,12.7h157.3c9.6,0,17.5-5.7,17.5-12.7S285.8,140.7,276.2,140.7z"/> </g>
</svg>
