<?xml version="1.0" encoding="utf-8"?>
<!-- Generator: Adobe Illustrator 22.0.1, SVG Export Plug-In . SVG Version: 6.00 Build 0)  -->
<svg version="1.1" id="sliders" xmlns="http://www.w3.org/2000/svg" xmlns:xlink="http://www.w3.org/1999/xlink" x="0px" y="0px"
	 viewBox="0 0 682.7 682.7" style="enable-background:new 0 0 682.7 682.7;" xml:space="preserve">
<path d="M598.5,21h-515C49,21,21,49,21,83.5v515C21,633,49,661,83.5,661h515c34.5,0,62.5-28,62.5-62.5v-515C661,49,633,21,598.5,21z
	 M636,598.5c0,20.7-16.8,37.5-37.5,37.5h-515C62.8,636,46,619.2,46,598.5v-515C46,62.8,62.8,46,83.5,46h515
	c20.7,0,37.5,16.8,37.5,37.5V598.5z"/>
<path d="M523.5,328.5H282.4c-5.9-32-34-56.3-67.6-56.3s-61.7,24.3-67.6,56.3h-38.6c-6.9,0-12.5,5.6-12.5,12.5s5.6,12.5,12.5,12.5
	h38.6c5.9,32,34,56.3,67.6,56.3s61.7-24.3,67.6-56.3h241.1c6.9,0,12.5-5.6,12.5-12.5S530.4,328.5,523.5,328.5z M214.8,384.8
	c-24.1,0-43.8-19.6-43.8-43.8s19.6-43.8,43.8-43.8s43.8,19.6,43.8,43.8S238.9,384.8,214.8,384.8z"/>
<path d="M573.5,353.5c-6.9,0-12.5-5.6-12.5-12.5s5.6-12.5,12.5-12.5h0c6.9,0,12.5,5.6,12.5,12.5S580.4,353.5,573.5,353.5z"/>
</svg>
