<svg height="512pt" viewBox="0 -36 512 512" width="512pt" xmlns="http://www.w3.org/2000/svg"><path d="m501.929688.0546875h-27.269532c-5.558594 0-10.066406 4.5078125-10.066406 10.0664065 0 5.5625 4.507812 10.070312 10.066406 10.070312h17.203125v70.480469h-471.726562v-70.480469h365.921875c5.5625 0 10.070312-4.507812 10.070312-10.070312 0-5.558594-4.507812-10.0664065-10.070312-10.0664065h-375.988282c-5.5625 0-10.070312 4.5078125-10.070312 10.0664065v420.335937c0 5.5625 4.507812 10.070313 10.070312 10.070313h491.859376c5.5625 0 10.070312-4.507813 10.070312-10.070313v-420.335937c0-5.558594-4.507812-10.0664065-10.070312-10.0664065zm-10.066407 420.3359375h-471.726562v-309.582031h471.726562zm0 0"/><path d="m28.960938 54.371094c0 16.269531 13.234374 29.507812 29.507812 29.507812s29.507812-13.238281 29.507812-29.507812c0-16.273438-13.238281-29.507813-29.507812-29.507813-16.273438 0-29.507812 13.234375-29.507812 29.507813zm38.878906 0c0 5.167968-4.203125 9.371094-9.371094 9.371094s-9.371094-4.203126-9.371094-9.371094c0-5.167969 4.203125-9.371094 9.371094-9.371094s9.371094 4.203125 9.371094 9.371094zm0 0"/><path d="m91.890625 54.371094c0 16.269531 13.234375 29.507812 29.507813 29.507812 16.273437 0 29.507812-13.238281 29.507812-29.507812 0-16.273438-13.234375-29.507813-29.507812-29.507813-16.273438 0-29.507813 13.234375-29.507813 29.507813zm38.878906 0c0 5.167968-4.203125 9.371094-9.371093 9.371094-5.167969 0-9.371094-4.203126-9.371094-9.371094 0-5.167969 4.203125-9.371094 9.371094-9.371094 5.167968 0 9.371093 4.203125 9.371093 9.371094zm0 0"/><path d="m154.820312 54.371094c0 16.269531 13.238282 29.507812 29.507813 29.507812 16.273437 0 29.507813-13.238281 29.507813-29.507812 0-16.273438-13.234376-29.507813-29.507813-29.507813-16.269531 0-29.507813 13.234375-29.507813 29.507813zm38.878907 0c0 5.167968-4.203125 9.371094-9.371094 9.371094s-9.371094-4.203126-9.371094-9.371094c0-5.167969 4.203125-9.371094 9.371094-9.371094s9.371094 4.203125 9.371094 9.371094zm0 0"/><path d="m428.335938 20.246094c.761718 0 1.539062-.089844 2.3125-.269532l.445312-.105468c5.410156-1.273438 8.769531-6.691406 7.496094-12.105469-1.273438-5.414063-6.691406-8.765625-12.105469-7.496094l-.441406.101563c-5.414063 1.273437-8.773438 6.695312-7.5 12.105468 1.089843 4.640626 5.226562 7.769532 9.792969 7.769532zm0 0"/><path d="m232.214844 184.75c.761718 0 1.535156-.089844 2.3125-.269531l.441406-.105469c5.414062-1.273438 8.769531-6.691406 7.5-12.105469-1.273438-5.414062-6.691406-8.765625-12.105469-7.496093l-.445312.101562c-5.410157 1.273438-8.769531 6.691406-7.496094 12.105469 1.089844 4.640625 5.226563 7.769531 9.792969 7.769531zm0 0"/><path d="m207.855469 305.988281c-.0625.082031-.121094.167969-.183594.25-.183594.25-.359375.507813-.519531.773438-.050782.085937-.101563.171875-.152344.261719-.1875.328124-.355469.664062-.503906 1.011718-.007813.019532-.019532.039063-.027344.0625-.160156.382813-.289062.773438-.398438 1.167969-.007812.03125-.023437.058594-.027343.085937l-16.089844 60.109376h-89.011719c-5.558594 0-10.066406 4.507812-10.066406 10.070312 0 5.558594 4.507812 10.066406 10.066406 10.066406h93.527344c.992188.320313 2.03125.488282 3.082031.488282.769531 0 1.546875-.085938 2.316407-.269532l69.789062-16.492187c.058594-.011719.109375-.035157.167969-.050781.332031-.085938.660156-.183594.984375-.304688.066406-.023438.132812-.042969.195312-.066406.382813-.148438.753906-.320313 1.121094-.519532.054688-.03125.109375-.066406.164062-.097656.292969-.164062.578126-.347656.855469-.542968.09375-.066407.1875-.136719.28125-.207032.238281-.179687.46875-.375.695313-.585937.082031-.070313.164062-.140625.242187-.214844.03125-.03125.066407-.058594.097657-.089844l143.105468-143.105469c18.144532-18.144531 18.144532-47.667968 0-65.8125-18.144531-18.144531-47.664062-18.144531-65.8125 0l-2.578125 2.578126h-76.160156c-5.5625 0-10.070313 4.511718-10.070313 10.070312s4.507813 10.070312 10.070313 10.070312h56.023437l-54.566406 54.5625c-1.082031-.398437-2.25-.625-3.472656-.625h-170.058594c-5.558594 0-10.070312 4.507813-10.070312 10.066407 0 5.5625 4.511718 10.070312 10.070312 10.070312h154.023438l-46.316406 46.3125c-.289063.289063-.546876.59375-.792969.90625zm13.128906 25.671875 26.46875 26.46875-35.820313 8.464844zm169.695313-105.460937-123.339844 123.335937-10.722656-10.722656 123.035156-123.640625zm12.644531-49.980469c9.757812 9.753906 10.265625 25.3125 1.527343 35.671875l-18.601562-18.597656-18.597656-18.597657c10.359375-8.742187 25.917968-8.234374 35.671875 1.523438zm-49.980469 12.648438 12.066406 12.066406-123.035156 123.640625-12.367188-12.371094zm0 0"/><path d="m100.941406 184.695312h91.574219c5.558594 0 10.066406-4.507812 10.066406-10.070312 0-5.558594-4.507812-10.066406-10.066406-10.066406h-91.574219c-5.558594 0-10.070312 4.507812-10.070312 10.066406 0 5.5625 4.511718 10.070312 10.070312 10.070312zm0 0"/></svg>